<svg width="1728" height="1228" viewBox="0 0 1728 1228" fill="none" xmlns="http://www.w3.org/2000/svg">
<rect width="1728" height="1228" fill="#C0C0C0"/>
<path d="M78.4 567V507H108V513.8H86V526.6H106V533.4H86V567H78.4ZM130.19 567.533C126.545 567.533 123.212 566.622 120.19 564.8C117.167 562.933 114.745 560.444 112.923 557.333C111.145 554.222 110.256 550.778 110.256 547C110.256 543.222 111.145 539.778 112.923 536.667C114.745 533.556 117.167 531.089 120.19 529.267C123.212 527.4 126.545 526.467 130.19 526.467C132.945 526.467 135.523 526.978 137.923 528C140.367 529.022 142.478 530.444 144.256 532.267V527H150.923V567H144.256V561.733C142.478 563.511 140.367 564.933 137.923 566C135.523 567.022 132.945 567.533 130.19 567.533ZM131.123 561C133.656 561 135.945 560.378 137.99 559.133C140.078 557.844 141.723 556.156 142.923 554.067C144.167 551.933 144.79 549.578 144.79 547C144.79 544.422 144.167 542.089 142.923 540C141.723 537.867 140.078 536.178 137.99 534.933C135.945 533.644 133.656 533 131.123 533C128.59 533 126.278 533.644 124.19 534.933C122.145 536.178 120.501 537.867 119.256 540C118.056 542.089 117.456 544.422 117.456 547C117.456 549.578 118.056 551.933 119.256 554.067C120.501 556.156 122.145 557.844 124.19 559.133C126.278 560.378 128.59 561 131.123 561ZM174.015 567.8C171.97 567.8 169.77 567.422 167.415 566.667C165.103 565.867 163.103 564.556 161.415 562.733L163.415 554.867C164.659 556.956 166.259 558.622 168.215 559.867C170.17 561.067 172.259 561.667 174.481 561.667C176.615 561.667 178.215 561.156 179.281 560.133C180.348 559.067 180.881 557.778 180.881 556.267C180.881 554.533 180.303 553.267 179.148 552.467C178.037 551.667 177.037 551.111 176.148 550.8L170.748 548.733C169.77 548.333 168.592 547.756 167.215 547C165.837 546.2 164.637 545.067 163.615 543.6C162.592 542.133 162.081 540.222 162.081 537.867C162.081 535.733 162.592 533.778 163.615 532C164.637 530.222 166.081 528.822 167.948 527.8C169.815 526.733 172.015 526.2 174.548 526.2C176.548 526.2 178.637 526.556 180.815 527.267C182.992 527.978 184.837 529.178 186.348 530.867L184.348 538.733C183.281 536.778 181.837 535.222 180.015 534.067C178.192 532.911 176.303 532.333 174.348 532.333C172.526 532.333 171.081 532.844 170.015 533.867C168.992 534.889 168.481 536.067 168.481 537.4C168.481 538.467 168.837 539.422 169.548 540.267C170.259 541.111 171.326 541.8 172.748 542.333L178.148 544.4C179.126 544.756 180.326 545.333 181.748 546.133C183.215 546.933 184.503 548.089 185.615 549.6C186.726 551.111 187.281 553.156 187.281 555.733C187.281 559.333 186.015 562.244 183.481 564.467C180.992 566.689 177.837 567.8 174.015 567.8ZM193.979 567L212.913 533.4H195.179V527H223.979L205.046 560.6H222.913V567H193.979ZM233.056 567V527H240.256V567H233.056ZM236.656 519.8C235.323 519.8 234.19 519.333 233.256 518.4C232.323 517.467 231.856 516.333 231.856 515C231.856 513.622 232.323 512.489 233.256 511.6C234.19 510.667 235.323 510.2 236.656 510.2C238.034 510.2 239.167 510.667 240.056 511.6C240.99 512.489 241.456 513.622 241.456 515C241.456 516.333 240.99 517.467 240.056 518.4C239.167 519.333 238.034 519.8 236.656 519.8ZM253.025 567V527H259.692V533.467C261.158 531.111 263.047 529.311 265.358 528.067C267.714 526.822 270.247 526.2 272.958 526.2C275.803 526.2 278.425 526.911 280.825 528.333C283.269 529.711 285.247 531.733 286.758 534.4C288.269 537.022 289.025 540.222 289.025 544V567H281.825V545C281.825 541.844 280.869 539.067 278.958 536.667C277.092 534.222 274.447 533 271.025 533C268.225 533 265.714 534.022 263.492 536.067C261.314 538.067 260.225 540.978 260.225 544.8V567H253.025ZM318.158 567.533C314.514 567.533 311.181 566.622 308.158 564.8C305.136 562.933 302.714 560.444 300.892 557.333C299.114 554.222 298.225 550.778 298.225 547C298.225 543.222 299.114 539.778 300.892 536.667C302.714 533.556 305.136 531.089 308.158 529.267C311.181 527.4 314.514 526.467 318.158 526.467C320.914 526.467 323.492 526.978 325.892 528C328.336 529.022 330.447 530.444 332.225 532.267V527H338.892V567H332.225V561.733C330.447 563.511 328.336 564.933 325.892 566C323.492 567.022 320.914 567.533 318.158 567.533ZM319.092 561C321.625 561 323.914 560.378 325.958 559.133C328.047 557.844 329.692 556.156 330.892 554.067C332.136 551.933 332.758 549.578 332.758 547C332.758 544.422 332.136 542.089 330.892 540C329.692 537.867 328.047 536.178 325.958 534.933C323.914 533.644 321.625 533 319.092 533C316.558 533 314.247 533.644 312.158 534.933C310.114 536.178 308.469 537.867 307.225 540C306.025 542.089 305.425 544.422 305.425 547C305.425 549.578 306.025 551.933 307.225 554.067C308.469 556.156 310.114 557.844 312.158 559.133C314.247 560.378 316.558 561 319.092 561ZM356.317 567V533H347.25V527H356.517V513.667H363.317V527H373.25V533H363.517V567H356.317ZM381.65 567V527H388.85V567H381.65ZM385.25 519.8C383.917 519.8 382.783 519.333 381.85 518.4C380.917 517.467 380.45 516.333 380.45 515C380.45 513.622 380.917 512.489 381.85 511.6C382.783 510.667 383.917 510.2 385.25 510.2C386.628 510.2 387.761 510.667 388.65 511.6C389.583 512.489 390.05 513.622 390.05 515C390.05 516.333 389.583 517.467 388.65 518.4C387.761 519.333 386.628 519.8 385.25 519.8ZM419.885 567.8C416.019 567.8 412.485 566.867 409.285 565C406.085 563.133 403.53 560.622 401.619 557.467C399.752 554.311 398.819 550.822 398.819 547C398.819 543.133 399.752 539.644 401.619 536.533C403.53 533.378 406.085 530.867 409.285 529C412.485 527.133 416.019 526.2 419.885 526.2C423.797 526.2 427.33 527.133 430.485 529C433.685 530.867 436.219 533.378 438.085 536.533C439.997 539.644 440.952 543.133 440.952 547C440.952 550.822 439.997 554.311 438.085 557.467C436.219 560.622 433.685 563.133 430.485 565C427.33 566.867 423.797 567.8 419.885 567.8ZM419.885 561C422.463 561 424.797 560.378 426.885 559.133C428.974 557.844 430.641 556.156 431.885 554.067C433.13 551.933 433.752 549.578 433.752 547C433.752 544.422 433.13 542.089 431.885 540C430.641 537.867 428.974 536.178 426.885 534.933C424.797 533.644 422.463 533 419.885 533C417.308 533 414.974 533.644 412.885 534.933C410.797 536.178 409.13 537.867 407.885 540C406.641 542.089 406.019 544.422 406.019 547C406.019 549.578 406.641 551.933 407.885 554.067C409.13 556.156 410.797 557.844 412.885 559.133C414.974 560.378 417.308 561 419.885 561ZM450.931 567V527H457.598V533.467C459.065 531.111 460.953 529.311 463.265 528.067C465.62 526.822 468.153 526.2 470.865 526.2C473.709 526.2 476.331 526.911 478.731 528.333C481.176 529.711 483.153 531.733 484.665 534.4C486.176 537.022 486.931 540.222 486.931 544V567H479.731V545C479.731 541.844 478.776 539.067 476.865 536.667C474.998 534.222 472.353 533 468.931 533C466.131 533 463.62 534.022 461.398 536.067C459.22 538.067 458.131 540.978 458.131 544.8V567H450.931ZM107.44 717.056C100.912 717.056 95.28 715.552 90.544 712.544C85.872 709.536 82.256 705.408 79.696 700.16C77.2 694.848 75.952 688.768 75.952 681.92C75.952 676.8 76.784 672.096 78.448 667.808C80.112 663.52 82.416 659.776 85.36 656.576C88.304 653.376 91.696 650.912 95.536 649.184C99.44 647.392 103.6 646.496 108.016 646.496C111.92 646.496 115.12 646.944 117.616 647.84C120.176 648.672 122.096 649.408 123.376 650.048C124.208 650.432 124.976 650.784 125.68 651.104C126.384 651.36 126.864 651.488 127.12 651.488C127.824 651.488 128.4 651.232 128.848 650.72C129.296 650.144 129.584 649.184 129.712 647.84H132.112L131.92 659.072L132.112 670.304H129.712C128.752 663.648 126.448 658.496 122.8 654.848C119.152 651.2 114.32 649.376 108.304 649.376C104.08 649.376 100.528 650.24 97.648 651.968C94.768 653.632 92.464 655.968 90.736 658.976C89.008 661.92 87.728 665.376 86.896 669.344C86.128 673.248 85.744 677.44 85.744 681.92C85.744 688.64 86.448 694.4 87.856 699.2C89.328 704 91.696 707.712 94.96 710.336C98.288 712.896 102.736 714.176 108.304 714.176C112.464 714.176 116.08 713.216 119.152 711.296C122.224 709.376 124.688 706.816 126.544 703.616C128.464 700.416 129.616 696.896 130 693.056H132.304L132.112 704.768L132.4 716H130.096L129.808 714.944C129.552 714.112 129.232 713.344 128.848 712.64C128.528 711.872 127.952 711.488 127.12 711.488C126.672 711.488 126.128 711.616 125.488 711.872C124.912 712.128 124.24 712.448 123.472 712.832C121.808 713.664 119.632 714.592 116.944 715.616C114.256 716.576 111.088 717.056 107.44 717.056ZM145.238 716.384C143.126 716.384 141.654 715.872 140.822 714.848C139.99 713.824 139.574 712.576 139.574 711.104C139.574 709.184 140.022 707.136 140.918 704.96C141.878 702.784 142.71 701.088 143.414 699.872C145.142 697.12 147.19 694.496 149.558 692C151.926 689.504 154.422 687.488 157.046 685.952C159.734 684.352 162.294 683.552 164.726 683.552C166.006 683.552 167.254 683.776 168.47 684.224C169.686 684.608 170.87 685.28 172.022 686.24C172.598 686.688 172.982 687.136 173.174 687.584C173.43 687.968 173.558 688.32 173.558 688.64C173.558 689.6 173.142 690.08 172.31 690.08C171.734 690.08 171.318 689.696 171.062 688.928C170.23 686.752 168.886 685.664 167.03 685.664C165.43 685.664 163.606 686.4 161.558 687.872C159.51 689.344 157.494 691.104 155.51 693.152C153.334 695.456 151.35 697.952 149.558 700.64C147.766 703.264 146.422 705.664 145.526 707.84C145.078 708.8 144.758 709.664 144.566 710.432C144.438 711.136 144.374 711.744 144.374 712.256C144.374 713.408 144.854 713.984 145.814 713.984C146.902 713.984 148.502 713.184 150.614 711.584C152.15 710.368 153.718 708.896 155.318 707.168C156.982 705.44 158.518 703.744 159.926 702.08C161.334 700.352 162.454 699.008 163.286 698.048C163.606 697.536 163.894 697.056 164.15 696.608C164.47 696.16 164.758 695.776 165.014 695.456C165.27 695.136 165.686 694.88 166.262 694.688C166.902 694.496 167.542 694.4 168.182 694.4C168.95 694.4 169.59 694.528 170.102 694.784C170.614 695.04 170.71 695.488 170.39 696.128C170.39 696.192 170.038 696.864 169.334 698.144C168.63 699.36 167.798 700.832 166.838 702.56C165.942 704.288 165.142 705.952 164.438 707.552C164.054 708.448 163.734 709.28 163.478 710.048C163.222 710.816 163.094 711.456 163.094 711.968C163.094 712.8 163.414 713.216 164.054 713.216C164.502 713.216 165.174 712.96 166.07 712.448C167.478 711.744 168.886 710.72 170.294 709.376C171.766 708.032 173.11 706.656 174.326 705.248C175.03 704.544 175.67 703.872 176.246 703.232C176.822 702.592 177.366 701.92 177.878 701.216C178.07 701.024 178.23 700.928 178.358 700.928C178.742 700.928 178.934 701.216 178.934 701.792C178.934 702.112 178.806 702.4 178.55 702.656C177.846 703.488 177.142 704.352 176.438 705.248C175.734 706.08 174.998 706.912 174.23 707.744C173.526 708.576 172.79 709.408 172.022 710.24C171.318 711.008 170.582 711.744 169.814 712.448C167.062 715.008 164.534 716.288 162.23 716.288C161.206 716.288 160.342 715.936 159.638 715.232C158.934 714.464 158.582 713.28 158.582 711.68C158.582 710.464 158.806 709.088 159.254 707.552C159.382 706.848 159.574 706.144 159.83 705.44C160.15 704.736 160.438 704 160.694 703.232C159.414 705.28 157.942 707.328 156.278 709.376C154.678 711.36 152.95 713.024 151.094 714.368C149.238 715.712 147.286 716.384 145.238 716.384ZM259.21 669.728V691.04H250.954V678.368C244.938 678.496 238.506 679.904 231.658 682.592C224.81 685.28 217.834 689.184 210.73 694.304V708.416H230.218V716H181.162V708.416H201.322V678.368H181.162V670.784H210.73V687.776C225.898 675.68 240.394 669.632 254.218 669.632L259.21 669.728ZM295.188 716.938C290.438 716.938 286.438 715.828 283.188 713.609C279.938 711.359 277.484 708.25 275.828 704.281C274.172 700.312 273.344 695.719 273.344 690.5C273.344 685.219 274.203 680.625 275.922 676.719C277.672 672.781 280.172 669.734 283.422 667.578C286.703 665.391 290.609 664.297 295.141 664.297C298.391 664.297 301.125 664.781 303.344 665.75C305.594 666.719 307.438 667.969 308.875 669.5L308.641 661.953V643.812L317.453 642.875V716H310.094L309.625 710.469C307.781 712.656 305.547 714.281 302.922 715.344C300.328 716.406 297.75 716.938 295.188 716.938ZM296.078 710.609C298.734 710.609 301.156 710.172 303.344 709.297C305.562 708.391 307.422 707.031 308.922 705.219V676.391C307.609 674.484 305.812 673.031 303.531 672.031C301.281 671.031 298.781 670.531 296.031 670.531C293.688 670.531 291.641 670.984 289.891 671.891C288.172 672.766 286.734 674.062 285.578 675.781C284.422 677.469 283.547 679.547 282.953 682.016C282.391 684.453 282.109 687.234 282.109 690.359C282.109 694.609 282.609 698.25 283.609 701.281C284.609 704.281 286.141 706.594 288.203 708.219C290.297 709.812 292.922 710.609 296.078 710.609ZM360.603 693.152C357.083 693.024 353.755 692.928 350.619 692.864C347.547 692.8 344.955 692.768 342.843 692.768C340.795 692.768 338.587 692.832 336.219 692.96C333.851 693.024 331.611 693.056 329.499 693.056L334.107 676.064C336.795 676.128 339.355 676.224 341.787 676.352C344.219 676.416 346.235 676.448 347.835 676.448C350.267 676.448 352.859 676.416 355.611 676.352C358.427 676.288 361.179 676.16 363.867 675.968L360.603 693.152ZM421.422 691.531V709.859L424.562 708.688V691.531H421.422ZM438.297 690.172L430.797 691.906C430.391 694.188 430.062 697.109 429.812 700.672C429.562 704.234 429.453 707.422 429.484 710.234C425.891 711.641 422.953 712.719 420.672 713.469C418.422 714.219 415.719 714.891 412.562 715.484C409.438 716.078 406.016 716.375 402.297 716.375C396.141 716.375 390.719 715.406 386.031 713.469C381.344 711.531 377.469 708.938 374.406 705.688C371.375 702.406 369.125 698.766 367.656 694.766C366.188 690.766 365.453 686.734 365.453 682.672C365.453 677.891 366.266 673.328 367.891 668.984C369.516 664.609 371.906 660.719 375.062 657.312C378.219 653.875 382.078 651.188 386.641 649.25C391.234 647.281 396.422 646.297 402.203 646.297C403.109 646.297 403.812 646.312 404.312 646.344C404.844 646.375 405.5 646.406 406.281 646.438C407.062 646.469 408.109 646.516 409.422 646.578C413.234 646.828 416.844 646.953 420.25 646.953C423.406 646.953 425.969 646.859 427.938 646.672L428.594 662.328H427.938L424.938 651.875C423.75 651.562 422.266 651.25 420.484 650.938C418.703 650.594 416.688 650.297 414.438 650.047C412.219 649.797 409.812 649.672 407.219 649.672C401.75 649.672 397 650.562 392.969 652.344C388.938 654.094 385.688 656.469 383.219 659.469C380.781 662.438 379 665.734 377.875 669.359C376.75 672.984 376.188 676.688 376.188 680.469C376.188 684.75 376.969 688.797 378.531 692.609C380.125 696.422 382.359 699.797 385.234 702.734C388.141 705.672 391.516 707.969 395.359 709.625C399.203 711.25 403.281 712.062 407.594 712.062C408.719 712.062 409.875 712 411.062 711.875C412.25 711.75 413.469 711.594 414.719 711.406C416 711.188 417.453 710.953 419.078 710.703C419.734 707.922 420.062 704.984 420.062 701.891C420.062 697.609 419.734 694.25 419.078 691.812L406.984 690.172V689.609H438.297V690.172ZM407.875 648.031V647.656C405.781 647.469 403.891 647.375 402.203 647.375C397.141 647.375 392.469 648.25 388.188 650C383.938 651.75 380.25 654.219 377.125 657.406C374.031 660.562 371.625 664.328 369.906 668.703C368.219 673.047 367.375 677.703 367.375 682.672C367.375 688.484 368.828 693.891 371.734 698.891C374.641 703.859 378.812 707.812 384.25 710.75C389.688 713.688 396.094 715.156 403.469 715.156C404.844 715.156 406.719 715.016 409.094 714.734V714.359C402.219 714.391 396.312 713.453 391.375 711.547C386.438 709.641 382.453 707.047 379.422 703.766C376.391 700.484 374.188 696.891 372.812 692.984C371.469 689.078 370.797 685.172 370.797 681.266C370.797 676.453 371.562 672.016 373.094 667.953C374.656 663.891 376.922 660.375 379.891 657.406C382.859 654.438 386.578 652.141 391.047 650.516C395.547 648.859 400.609 648.031 406.234 648.031H407.875ZM441.13 682.592C441.322 680.544 441.77 678.592 442.474 676.736C443.242 674.88 444.33 673.248 445.738 671.84C447.146 670.432 448.906 669.312 451.018 668.48C453.13 667.584 455.562 667.136 458.314 667.136H464.074C466.954 667.136 469.45 667.616 471.562 668.576C473.738 669.536 475.53 670.816 476.938 672.416C478.346 673.952 479.402 675.744 480.106 677.792C480.81 679.776 481.162 681.792 481.162 683.84V716H453.898C451.786 716 449.898 715.616 448.234 714.848C446.57 714.016 445.162 712.96 444.01 711.68C442.922 710.336 442.09 708.768 441.514 706.976C441.002 705.184 440.746 703.264 440.746 701.216C440.746 699.232 441.034 697.376 441.61 695.648C442.186 693.92 443.018 692.448 444.106 691.232C445.194 689.952 446.538 688.96 448.138 688.256C449.802 687.488 451.658 687.104 453.706 687.104H470.122V686.144C470.122 684.992 470.026 683.936 469.834 682.976C469.642 681.952 469.29 681.088 468.778 680.384C468.266 679.68 467.498 679.136 466.474 678.752C465.45 678.304 464.074 678.08 462.346 678.08H459.946C457.386 678.08 455.562 678.464 454.474 679.232C453.386 679.936 452.65 681.056 452.266 682.592H441.13ZM451.018 701.216C451.018 702.88 451.338 704.128 451.978 704.96C452.682 705.728 453.45 706.112 454.282 706.112H470.122V696.32H454.282C453.45 696.32 452.682 696.736 451.978 697.568C451.338 698.4 451.018 699.616 451.018 701.216ZM504.334 716L515.95 665.216H536.782L538.222 689.024H538.606L548.302 665.216H569.134L562.99 716H546.478L549.07 695.36H548.59L539.95 716H527.278L525.838 695.36H525.358L520.75 716H504.334ZM511.726 669.536L471.502 665.216H512.782L511.726 669.536ZM509.614 678.752L469.294 674.432H510.574L509.614 678.752ZM507.406 687.968L467.086 683.648H508.462L507.406 687.968ZM505.486 697.184L464.878 692.864H506.446L505.486 697.184ZM503.278 706.4L462.67 702.08H504.334L503.278 706.4ZM501.166 715.712L460.462 711.392H502.126L501.166 715.712ZM672.484 691.109C672.484 694.828 672.125 698.688 671.406 702.688C670.594 706.5 669.781 710.312 668.969 714.125C668.625 715.844 666.016 716.703 661.141 716.703C658.484 716.703 653.359 716.609 645.766 716.422C638.203 716.234 633.094 716.141 630.438 716.141C614.562 716.141 601.703 716.375 591.859 716.844L581.359 717.312C580.641 717.312 579.969 716.969 579.344 716.281C578.781 715.688 578.516 715.109 578.547 714.547C578.578 713.266 579.25 712.422 580.562 712.016C581.188 711.797 582.406 711.656 584.219 711.594C585.469 711.594 587.578 711.547 590.547 711.453C595.109 711.297 597.312 709.031 597.156 704.656C597.094 703.219 596.844 699.219 596.406 692.656C596.031 687.438 595.844 682.547 595.844 677.984C595.844 677.922 595.953 674.672 596.172 668.234C596.422 661.797 596.547 658.141 596.547 657.266C596.547 654.922 595.297 653.062 592.797 651.688C591.953 651.219 588.828 650.688 583.422 650.094C579.047 649.562 576.859 648.609 576.859 647.234C576.859 645.453 577.719 644.562 579.438 644.562C578.719 644.562 582.469 644.719 590.688 645.031C599.031 645.344 607.859 645.5 617.172 645.5C630.234 645.5 640.047 645.344 646.609 645.031C653.203 644.688 659.109 644.516 664.328 644.516C666.547 644.516 667.938 645.953 668.5 648.828C668.656 649.672 668.734 651.922 668.734 655.578C668.734 658.359 668.219 662.016 667.188 666.547C666.75 668.453 665.812 669.484 664.375 669.641C663.719 669.703 663.094 669.484 662.5 668.984C661.938 668.453 661.641 667.734 661.609 666.828C661.578 665.641 661.391 664.656 661.047 663.875C659.266 659.781 655.844 656.734 650.781 654.734C646.844 653.141 642.516 652.344 637.797 652.344C637.234 652.344 636.734 652.594 636.297 653.094C635.859 653.562 635.641 654.031 635.641 654.5C635.641 656.344 635.688 658.391 635.781 660.641C635.969 665.141 636.062 668.516 636.062 670.766C636.062 672.766 637.141 673.766 639.297 673.766C639.547 673.766 640.688 673.641 642.719 673.391C644.781 673.141 645.938 673.016 646.188 673.016C649.219 673.016 651.953 673.422 654.391 674.234C656.203 674.828 657.141 676.891 657.203 680.422C657.266 682.672 656.625 686.562 655.281 692.094C654.719 694.469 653.828 695.656 652.609 695.656C651.328 695.656 650.656 695.109 650.594 694.016C650.562 693.703 650.578 693.203 650.641 692.516C650.672 691.703 650.688 691.141 650.688 690.828C650.688 688.547 649.547 686.125 647.266 683.562C644.672 680.656 641.688 679.203 638.312 679.203C637.844 679.203 637.234 679.625 636.484 680.469C636.453 684.062 636.203 689.562 635.734 696.969C635.297 704.344 635.078 707.891 635.078 707.609C635.078 709.109 635.75 709.859 637.094 709.859C641.938 709.859 648.031 707.375 655.375 702.406C660.344 699.031 663.922 695.984 666.109 693.266C666.734 692.484 667.219 691.375 667.562 689.938C667.938 688.5 668.719 687.781 669.906 687.781C670.75 687.781 671.422 688.25 671.922 689.188C672.297 689.875 672.484 690.516 672.484 691.109ZM721.984 705.078C721.984 707.328 721.531 709.266 720.625 710.891C719.719 712.516 718.5 713.859 716.969 714.922C715.469 715.953 713.703 716.703 711.672 717.172C709.672 717.672 707.562 717.922 705.344 717.922C699.969 717.922 694.922 716.797 690.203 714.547C690.797 712.484 691.391 710.578 691.984 708.828C692.578 707.047 693.188 705.406 693.812 703.906L695.172 704.375C694.891 705.75 694.75 707.078 694.75 708.359C694.75 709.609 694.797 710.75 694.891 711.781C695.859 712.281 696.766 712.719 697.609 713.094C698.453 713.438 699.297 713.734 700.141 713.984C700.984 714.203 701.891 714.375 702.859 714.5C703.828 714.594 704.953 714.641 706.234 714.641C708.141 714.641 709.719 714.516 710.969 714.266C712.219 714.016 713.188 713.594 713.875 713C714.594 712.375 715.094 711.562 715.375 710.562C715.656 709.531 715.797 708.266 715.797 706.766C715.797 705.609 715.594 704.531 715.188 703.531C714.812 702.5 714.141 701.484 713.172 700.484C712.234 699.484 710.969 698.453 709.375 697.391C707.812 696.297 705.859 695.109 703.516 693.828C699.734 691.578 696.875 689.344 694.938 687.125C693 684.875 692.031 682.469 692.031 679.906C692.031 677.875 692.453 676.078 693.297 674.516C694.141 672.922 695.281 671.594 696.719 670.531C698.188 669.438 699.891 668.625 701.828 668.094C703.766 667.531 705.812 667.25 707.969 667.25C709.062 667.25 710.203 667.328 711.391 667.484C712.609 667.641 713.781 667.875 714.906 668.188C716.031 668.469 717.078 668.828 718.047 669.266C719.047 669.672 719.906 670.141 720.625 670.672C719.625 674.766 718.406 678.359 716.969 681.453L715.609 680.938C715.672 680.031 715.719 678.922 715.75 677.609C715.781 676.266 715.797 674.688 715.797 672.875C713.766 671.281 710.953 670.484 707.359 670.484C705.578 670.484 704.062 670.594 702.812 670.812C701.594 671.031 700.609 671.406 699.859 671.938C699.109 672.469 698.562 673.203 698.219 674.141C697.906 675.047 697.75 676.203 697.75 677.609C697.75 678.641 697.891 679.609 698.172 680.516C698.453 681.391 698.953 682.266 699.672 683.141C700.391 683.984 701.359 684.859 702.578 685.766C703.828 686.641 705.422 687.594 707.359 688.625C710.391 690.281 712.844 691.734 714.719 692.984C716.625 694.234 718.109 695.469 719.172 696.688C720.266 697.875 721 699.125 721.375 700.438C721.781 701.75 721.984 703.297 721.984 705.078Z" fill="black"/>
<path d="M1612 1020C1238 1020 1444.55 1020 1238 1020C1031.45 1020 1238 1020 864 1020C864 813.446 1031.45 646 1238 646C1444.55 646 1612 813.446 1612 1020Z" fill="#9B3C3C"/>
<circle cx="1238" cy="500" r="146" fill="#9B3C3C"/>
</svg>
